<svg xmlns="http://www.w3.org/2000/svg" width="101" height="28"><defs><radialGradient id="b" cx="-6.347%" cy="56.143%" r="421.128%" fx="-6.347%" fy="56.143%" gradientTransform="matrix(0 -.18076 1 0 -.625 .55)"><stop offset="0%" stop-color="#F6A520"/><stop offset="100%" stop-color="#FFF"/></radialGradient><radialGradient id="c" cx="46.434%" cy="91.634%" r="448.213%" fx="46.434%" fy="91.634%" gradientTransform="matrix(-.17045 0 0 -1 .543 1.833)"><stop offset="0%" stop-color="#F6A520"/><stop offset="100%" stop-color="#FFF"/></radialGradient><radialGradient id="d" cx="106.443%" cy="56.143%" r="423.105%" fx="106.443%" fy="56.143%" gradientTransform="matrix(0 -.17991 1 0 .503 .753)"><stop offset="0%" stop-color="#F6A520"/><stop offset="100%" stop-color="#FFF"/></radialGradient><linearGradient id="a" x1="50.003%" x2="50.003%" y1="99.984%" y2="-.024%"><stop offset="1%" stop-color="#FFCB00"/><stop offset="40%" stop-color="#F7E830"/><stop offset="100%" stop-color="#F7E830"/></linearGradient><linearGradient id="e" x1="50.972%" x2="50.972%" y1="6.806%" y2="106.528%"><stop offset="0%" stop-color="#F7E830"/><stop offset="100%" stop-color="#F6A520"/></linearGradient><linearGradient id="f" x1="49.412%" x2="49.412%" y1="4.621%" y2="106.76%"><stop offset="0%" stop-color="#F7E830"/><stop offset="100%" stop-color="#F6A520"/></linearGradient></defs><g fill="none" fill-rule="evenodd"><path fill="#FCD205" d="M98.096 1.064l-.801.33a.535.535 0 00-.365.55v2.421H76.524v-2.42a.535.535 0 00-.364-.551l-.82-.33s-.219-.147.073-.275l1.42-.532c.183-.055.365-.074.547-.074h18.676c.182-.018.364.019.546.074l1.422.532c.31.128.072.275.072.275z"/><path fill="#FCE907" d="M98.096 1.064l-1.494-.55a1.897 1.897 0 00-.546-.092H77.38c-.182 0-.346.037-.51.092l-1.512.55s-.219-.147.073-.275l1.421-.55c.182-.056.364-.074.547-.074h18.675c.182-.018.364.018.547.073l1.42.532c.292.147.055.294.055.294z"/><path fill="#F0A020" d="M75.267.935v2.183l1.33-.88s.255-.716-.383-.99l-.947-.313z"/><path fill="#F8DE00" d="M75.267.935v.129l.947.312c.529.183.383.862.383.862s.255-.716-.383-.99l-.947-.313z"/><path fill="#F0A020" d="M97.24 1.247c-.638.275-.382.99-.382.99l1.33.881V.935l-.948.312z"/><path fill="#F8DE00" d="M97.24 1.247c-.638.275-.382.99-.382.99s-.146-.678.382-.861l.948-.312V.935l-.948.312z"/><path fill="url(#a)" d="M100.119 4.255v21.406c0 .825-.674 1.486-1.476 1.486H74.83c-.82 0-1.476-.66-1.495-1.486V4.255h26.784z"/><path fill="#F8F3B6" fill-rule="nonzero" d="M73.335 4.365h26.783v1H73.335z"/><path fill="#AF8E2E" d="M92.303 1.577c.382 0 .692.312.692.697 0 .386-.31.697-.692.697a.694.694 0 01-.693-.697c0-.385.31-.697.693-.697z"/><path fill="#93792C" d="M92.303 1.577c.382 0 .692.312.692.697a.698.698 0 00-.784-.605c-.31.037-.546.294-.6.605 0-.385.309-.697.692-.697z"/><path fill="#AF8E2E" d="M81.17 1.577c.383 0 .692.312.692.697 0 .386-.31.697-.692.697a.694.694 0 01-.692-.697c-.018-.385.291-.697.692-.697-.018 0-.018 0 0 0z"/><path fill="#93792C" d="M81.17 1.577c.383 0 .692.312.692.697a.698.698 0 00-.783-.605c-.31.037-.547.294-.601.605-.018-.385.291-.697.692-.697-.018 0-.018 0 0 0z"/><path fill="url(#b)" fill-rule="nonzero" d="M.091.165H3.99v21.571H.091z" opacity=".2" transform="translate(73.244 4.586)"/><path fill="url(#c)" fill-rule="nonzero" d="M22.939 3.999H.019V.697L1.785.092h19.386l1.767.605z" opacity=".9" transform="translate(75.249 .367)"/><path fill="url(#d)" fill-rule="nonzero" d="M.036.165h3.881v21.571H.036z" opacity=".2" transform="translate(96.202 4.586)"/><path fill="#027CD5" fill-rule="nonzero" d="M91.902 22.781h2.059c.765 0 1.257-.568 1.494-1.816.218-1.21-.055-1.742-.839-1.742h-2.058l.328-1.816c.364-2.073 1.439-3.082 3.225-3.082h.327c.984 0 1.53-.165 1.604-.623.054-.312-.037-.734-.128-1.21a5.016 5.016 0 00-.364-1.156c-.237-.422-.784-.624-1.64-.624-2.132 0-3.88.587-5.266 1.78-1.384 1.191-2.277 2.787-2.66 4.933l-.346 1.78H83.32c-.073 0-4.537.495-4.537.495l4.118.623.164.606-2.514.22 2.642.385.109.495-7.89.44s8.51.33 8.582.33h3.007l-.766 4.366h4.92l.747-4.384z"/><path fill="#B2B4B2" fill-rule="nonzero" d="M95.892 10.712c-2.187 0-3.917.605-5.266 1.78-1.348 1.173-2.259 2.732-2.642 4.896l-.346 1.835h-4.3l-3.407.367 8.035.055.037-.294.328-1.89c.382-2.109 1.239-3.686 2.587-4.842 1.312-1.137 2.879-1.65 5.01-1.65.82 0 1.367-.019 1.585.348.019.019-.236-.623-1.621-.605zm-9.675 16.435h.328l.783-4.366h-.327l-.784 4.366zm8.472-7.924h-2.131l-.091.44H95.4a.728.728 0 00-.71-.44z" opacity=".5"/><path fill="#F7E830" d="M100.119 4.109l-3.316-2.256v2.512h3.316zm-26.784.256h3.317V1.853l-3.317 2.256z"/><path fill="#FDD535" d="M73.335 4.31l3.317-2.237v-.239L73.335 4.11zm26.784-.201l-3.316-2.275v.22l3.316 2.256z"/><path fill="#F4DB06" fill-rule="nonzero" d="M73.335 4.255h3.316v1h-3.316zm23.468 0h3.316v1h-3.316z"/><path fill="url(#e)" d="M93.232 5.998a.655.655 0 11-1.312 0c0-.367.291-.66.656-.66.364.018.656.311.656.66z"/><path fill="url(#f)" d="M81.443 6.035a.616.616 0 01-.62.623.616.616 0 01-.619-.623c0-.349.274-.624.62-.624.346-.018.62.275.62.624z"/><path fill="#FFF" fill-rule="nonzero" d="M86.709 11.354a6.668 6.668 0 01-4.318-1.54c-1.166-.973-1.822-2.294-1.822-3.596a.796.796 0 01.182-.642.467.467 0 01.528.073s.128.037.128.276c.018.146 0 .348 0 .348 0 2.293 2.46 4.255 5.302 4.255 3.644 0 5.284-2.219 5.284-4.292 0 0-.128-.477.164-.697.783-.22.692.697.692.697a4.759 4.759 0 01-1.603 3.577c-1.13 1.009-2.697 1.54-4.537 1.54z"/><path fill="#BBBCBE" fill-rule="nonzero" d="M86.709 11.354a6.668 6.668 0 01-4.318-1.54c-1.166-.973-1.822-2.294-1.822-3.596a.796.796 0 01.182-.642.467.467 0 01.528.073s.128.037.128.276c.018.146 0 .348 0 .348 0 2.293 2.46 4.255 5.302 4.255 3.644 0 5.284-2.219 5.284-4.292 0 0-.128-.477.164-.697.783-.22.692.697.692.697a4.759 4.759 0 01-1.603 3.577c-1.13 1.009-2.697 1.54-4.537 1.54z" opacity=".4"/><g fill-rule="nonzero" opacity=".4"><path fill="#A6A7AB" d="M81.57 6.053c-.546-.349-1.202-.092-1.22-.092l-.036-.073c.036 0 .71-.275 1.293.11l-.036.055zm-1.202.679l-.036-.074a1.526 1.526 0 011.294-.146l-.037.073c-.62-.22-1.202.147-1.22.147zm.292.788l-.055-.055c.019-.018.547-.513 1.24-.403l-.019.091c-.638-.11-1.148.367-1.166.367zm.255.716l-.055-.055c.31-.33.747-.514 1.203-.477v.091c-.674-.091-1.148.44-1.148.44zm.365.697l-.073-.037c.018-.018.4-.642 1.093-.715v.091c-.656.055-1.02.66-1.02.66zm.51.568l-.073-.036a1.53 1.53 0 011.056-.77l.019.091c-.656.092-1.002.715-1.002.715zm.528.514l-.073-.037c.182-.422.547-.715.984-.844l.018.092c-.638.147-.91.789-.929.789zm.583.55l-.073-.018c.11-.44.401-.826.802-1.027l.036.073c-.601.275-.765.972-.765.972zm.747.349h-.091c0-.037.018-.77.583-1.156l.055.073c-.51.367-.547 1.083-.547 1.083zm.602.33a1.535 1.535 0 01.51-1.192l.054.055c-.51.421-.474 1.118-.474 1.137h-.09zm.746.256c-.109-.44 0-.917.274-1.283l.072.055a1.434 1.434 0 00-.236 1.21l-.11.019zm.838-.018a1.549 1.549 0 01.019-1.302l.073.037c-.31.568-.019 1.229-.019 1.229l-.073.036zm.802.202A1.599 1.599 0 0186.4 10.4l.073.018c-.2.624.219 1.193.219 1.211l-.055.055zm.711-.018a1.54 1.54 0 01-.255-1.284l.072.018c-.182.624.237 1.192.237 1.21l-.054.056zm.673-.129a1.59 1.59 0 01-.181-1.284l.073.037c-.22.605.163 1.21.163 1.21l-.054.037zm.73-.11a1.615 1.615 0 01-.274-1.284l.073.019c-.182.623.255 1.192.255 1.192l-.054.073zm.765-.238c-.328-.312-.529-.752-.51-1.192h.09c-.054.642.475 1.118.475 1.137l-.055.055zm.655-.404a1.547 1.547 0 01-.564-1.174h.091c-.018.66.528 1.1.528 1.1l-.054.074zm.602-.44a1.563 1.563 0 01-.656-1.119h.091c.037.66.62 1.046.62 1.064l-.055.055zm.656-.459a1.513 1.513 0 01-.856-.972l.073-.018c.163.642.801.917.82.917l-.037.073zm.492-.678c-.037 0-.93-.165-1.22-.807l.072-.037c.273.587 1.148.752 1.166.752l-.018.092zm.601-.568c-.036 0-.965-.166-1.312-.771l.073-.037c.31.569 1.24.734 1.24.734v.073zm.146-.753c-.437 0-.856-.165-1.148-.495l.073-.055c.419.495 1.13.458 1.13.458v.092h-.055zm-.073-.77a1.612 1.612 0 01-1.002-.294l.055-.055c.51.404 1.33.239 1.348.239l.018.073c-.146.018-.273.037-.419.037zm-.219-.679a1.97 1.97 0 01-.656-.11l.019-.073c.4.128.82.128 1.22 0l.037.073c-.2.092-.401.128-.62.11zm-.072-.605c-.22 0-.42-.037-.638-.11l.036-.074c.401.147.838.147 1.221 0l.036.074c-.218.073-.437.11-.655.11z"/><path fill="#FFF" d="M81.626 6.09c-.547-.349-1.221-.092-1.221-.092l-.018-.055s.71-.275 1.275.11l-.036.037zm-1.221.697l-.037-.055s.638-.404 1.276-.147l-.018.055c-.602-.239-1.203.147-1.221.147zm.291.788l-.036-.055s.547-.513 1.22-.403v.055c-.655-.092-1.165.385-1.184.403zm.255.697l-.054-.036s.51-.55 1.184-.477v.055c-.638-.074-1.13.458-1.13.458zm.365.716l-.055-.037s.401-.642 1.075-.697v.055c-.638.055-1.02.66-1.02.679zm.51.568l-.055-.036s.365-.66 1.039-.77v.054c-.638.11-.984.734-.984.752zm.528.514l-.054-.018s.31-.697.984-.844l.018.055c-.638.147-.948.807-.948.807zm.583.55l-.054-.018s.164-.734.801-1.009l.019.055c-.602.257-.766.954-.766.972zm.747.349h-.054s.018-.752.583-1.156l.036.055c-.528.367-.565 1.082-.565 1.1zm.62.33s-.018-.752.51-1.192l.037.055c-.51.421-.474 1.137-.474 1.137h-.073zm.747.257s-.182-.734.273-1.266l.055.037c-.42.513-.255 1.21-.255 1.21l-.073.019zm.839-.019s-.31-.678.017-1.302l.055.037c-.31.587-.018 1.229-.018 1.247l-.055.018zm.8.183s-.437-.605-.236-1.283l.055.018c-.2.624.218 1.21.218 1.21l-.036.056zm.711-.018s-.437-.605-.255-1.265l.055.018c-.182.642.237 1.21.237 1.21l-.037.037zm.674-.128s-.4-.624-.182-1.284l.055.018c-.219.624.164 1.23.164 1.23l-.037.036zm.784-.128s-.492-.587-.31-1.248l.055.019c-.182.642.291 1.192.291 1.192l-.036.037zm.765-.221s-.601-.495-.546-1.173h.054c-.054.66.529 1.118.529 1.137l-.037.036zm.656-.458s-.638-.404-.62-1.1h.074c-.019.66.583 1.045.583 1.045l-.037.055zm.638-.404s-.71-.385-.747-1.082h.054c.037.66.711 1.027.711 1.027l-.018.055zm.71-.458c-.036-.019-.838-.33-1.002-1.009l.055-.018c.164.642.947.953.966.953l-.019.074zm.419-.752c-.036 0-1.002-.165-1.293-.789l.054-.037c.274.587 1.24.752 1.258.752l-.019.074zm.474-.533l-.127-.054c-.274-.11-.911-.367-1.075-.642l.054-.037c.146.257.766.514 1.039.605.146.056.146.056.146.092 0 .019 0 .037-.037.037zm.255-.696v-.037l-.218-.055c-.328-.092-.82-.202-.984-.385l.054-.037c.128.165.638.294.948.367.273.073.291.073.291.11 0 .037-.054.037-.09.037zm.128-.826l-.018-.036c-.055 0-.146-.019-.256-.019-.327-.018-.838-.055-1.002-.183l.037-.055c.146.128.656.147.965.183.31.037.328.019.328.055 0 .037-.018.037-.054.055zm-.547-.568c-.218 0-.419-.055-.601-.147l.036-.055c.583.312 1.221 0 1.24 0l.018.055a1.803 1.803 0 01-.693.147zm-.037-.624c-.218 0-.418-.055-.6-.147l.036-.055c.583.312 1.22 0 1.239 0l.018.055a1.877 1.877 0 01-.692.147z"/></g><path fill="#FFF" fill-rule="nonzero" d="M14.649 7.777c.127.147.182.33.146.514l-1.476 9.501c-.018.165-.018.275-.018.33 0 .33.054.532.182.66a.851.851 0 00.4.166.632.632 0 01.365.183c.128.128.2.33.182.514l-.09.862c0 .165-.092.311-.201.422a2.736 2.736 0 01-.401.201c-.31.11-.62.165-.93.184-.801 0-1.42-.184-1.84-.55-.419-.367-.637-.9-.637-1.596a3.4 3.4 0 01.054-.606c.019-.091 1.604-10.363 1.622-10.473a.634.634 0 01.638-.55h1.53c.2 0 .365.091.474.238zm4.354 3.448H17.51a.663.663 0 00-.637.55l-1.349 8.585c-.054.348.2.679.547.734h1.603c.31 0 .583-.239.638-.55l1.348-8.603a.641.641 0 00-.546-.734h-.091l-.019.018zm-.51-.843c.638 0 1.112-.165 1.403-.496.31-.348.474-.788.456-1.265a1.086 1.086 0 00-.346-.917c-.22-.202-.583-.312-1.039-.312-.638 0-1.111.165-1.403.495a1.82 1.82 0 00-.455 1.284 1.13 1.13 0 00.328.917c.255.184.6.294 1.056.294zm22.01 1.1a.637.637 0 00-.51-.257h-1.585a.646.646 0 00-.62.459 6.43 6.43 0 01-.765 1.596c-.528.844-.947 1.357-1.312 1.596l-.054.018c-.128.055-.328.165-1.02.293l-.092.019 1.093-6.915a.642.642 0 00-.528-.734h-1.64a.663.663 0 00-.638.55L30.92 20.36a.598.598 0 00.146.514c.128.146.292.22.492.22h1.53c.31 0 .584-.239.638-.55l.492-3.192h.966l1.312 3.338a.633.633 0 00.583.404h1.658a.648.648 0 00.637-.642.59.59 0 00-.054-.257l-1.494-3.889.036-.036a11.847 11.847 0 001.895-2.367 6.899 6.899 0 00.875-1.852.88.88 0 00-.128-.569zm24.178-.257h-1.184l.273-1.705a.641.641 0 00-.547-.734H61.93a.646.646 0 00-.62.459l-.583 1.98h-.656a.663.663 0 00-.637.55l-.146.918a.642.642 0 00.528.734h.51l-.71 4.567a4.985 4.985 0 00-.073.899c0 .807.219 1.394.656 1.797.437.404 1.093.605 1.968.605.455-.018.91-.11 1.348-.256.073-.019.2-.074.219-.074.036-.018.054-.018.09-.036a.605.605 0 00.329-.496l.109-.953a.634.634 0 00-.2-.532.396.396 0 00-.146-.092c-.037-.018-.073-.037-.091-.037-.11-.018-.2-.018-.31-.018h-.364a.916.916 0 01-.42-.165c-.054-.055-.218-.202-.218-.734 0-.055 0-.128.018-.257l.656-4.218h1.348c.31 0 .565-.22.62-.514l.182-.917c.073-.349-.146-.697-.474-.77h-.182zm-35.201.863c.528.715.802 1.669.802 2.824 0 .752-.11 1.504-.31 2.22a7.458 7.458 0 01-.966 2.036 4.657 4.657 0 01-1.858 1.559 6.587 6.587 0 01-2.843.587c-.528 0-1.075-.055-1.603-.129h-.055l-.109 1.156v.037l-.328 2.054a.632.632 0 01-.638.532H20.06a.648.648 0 01-.637-.642v-.11l1.967-12.473a.634.634 0 01.638-.55h.984a.62.62 0 01.455.202.652.652 0 01.183.476l-.037 1.064.11-.146a5.504 5.504 0 012.368-1.596 3.498 3.498 0 011.148-.184c.984 0 1.713.367 2.241 1.083zm-2.04 3.32a2.827 2.827 0 00-.292-1.394.909.909 0 00-.838-.57c-.401 0-.875.258-1.385.771a8.89 8.89 0 00-1.385 1.798l-.437 2.751.055.018c.492.147 1.002.22 1.53.22.93 0 1.622-.385 2.077-1.118a4.954 4.954 0 00.674-2.476zm30.5-4.293a5.076 5.076 0 00-1.713.88c-.42.35-.82.716-1.184 1.12l-.11.128.055-1.339a.652.652 0 00-.62-.679h-1.02a.663.663 0 00-.638.55l-1.33 8.585c-.054.348.2.679.547.734h1.603c.31 0 .583-.239.638-.55l.71-4.586a5.457 5.457 0 011.568-1.468 3.741 3.741 0 011.457-.568.642.642 0 00.529-.514l.291-1.577c.037-.22-.018-.44-.182-.587a.722.722 0 00-.601-.129zm-6.997 1.046l-1.312 8.4a.634.634 0 01-.637.551h-.984a.652.652 0 01-.656-.679l.036-1.045-.11.128a7.98 7.98 0 01-.8.77c-.438.33-.93.606-1.44.808a3.75 3.75 0 01-1.276.22c-.983 0-1.712-.349-2.259-1.082-.546-.734-.802-1.67-.802-2.825 0-.587.055-1.174.183-1.761a6.2 6.2 0 01.637-1.706 5.55 5.55 0 011.112-1.486 4.81 4.81 0 011.712-1.027 6.99 6.99 0 012.37-.403 20.94 20.94 0 013.698.403.667.667 0 01.528.734zm-3.006 1.412l-.055-.018a5.418 5.418 0 00-1.53-.22c-.93 0-1.622.385-2.077 1.119a4.503 4.503 0 00-.675 2.458 3.17 3.17 0 00.292 1.412.915.915 0 00.856.569c.401 0 .875-.257 1.385-.77a8.89 8.89 0 001.385-1.798l.419-2.752zm-37.57-4.09l.182-1.192a.642.642 0 00-.528-.734h-7.27a.663.663 0 00-.637.55L.182 20.342a.598.598 0 00.146.513c.128.147.31.239.492.239h1.658a.63.63 0 00.62-.55l.746-4.751h4.1c.31 0 .583-.22.638-.532l.182-1.046a.642.642 0 00-.529-.733h-3.99l.51-3.449H9.73a.648.648 0 00.638-.55z"/></g></svg>