<?xml version="1.0" encoding="UTF-8"?>
<svg version="1.1" xmlns="http://www.w3.org/2000/svg" width="512" height="512">
<path d="M0 0 C168.96 0 337.92 0 512 0 C512 168.96 512 337.92 512 512 C343.04 512 174.08 512 0 512 C0 343.04 0 174.08 0 0 Z " fill="#F6DE40" transform="translate(0,0)"/>
<path d="M0 0 C1.62844849 -0.02670776 1.62844849 -0.02670776 3.28979492 -0.05395508 C13.37738751 -0.04394525 23.82097987 1.46970509 31.6875 8.3125 C36.92274855 14.20565412 38.71054073 21.86149017 40.6875 29.3125 C40.964729 30.33005371 40.964729 30.33005371 41.24755859 31.36816406 C47.12341217 53.17001875 47.12341217 53.17001875 43 61.875 C37.28041454 67.90375224 30.48483646 69.03633286 22.39648438 69.50195312 C18.76434219 69.58905971 15.13287668 69.64099729 11.5 69.6875 C-5.94179469 70.12119614 -22.04551451 72.7158482 -35.33984375 85.08203125 C-54.28484765 106.50301585 -56.54331789 136.30545319 -61.3125 163.3125 C-60.76206024 163.30583817 -60.21162048 163.29917633 -59.64450073 163.29231262 C-53.90173194 163.22580478 -48.15907305 163.18063545 -42.41601562 163.14770508 C-40.27436883 163.13264359 -38.13275276 163.11219028 -35.99121094 163.08618164 C-32.90812589 163.04968272 -29.82544962 163.03274698 -26.7421875 163.01953125 C-25.31215897 162.99630547 -25.31215897 162.99630547 -23.85324097 162.97261047 C-18.57097326 162.97128127 -14.86932521 163.32781078 -10.3125 166.3125 C-4.46056257 172.48954507 -3.92017039 178.1310628 -4.06640625 186.36328125 C-4.89380818 199.64111225 -7.73091297 216.1190628 -17.55567932 225.85528564 C-24.03333401 231.22824801 -31.14181884 231.87762517 -39.25390625 231.703125 C-40.26218979 231.69746521 -41.27047333 231.69180542 -42.30931091 231.68597412 C-45.49837736 231.6637609 -48.68627886 231.6135928 -51.875 231.5625 C-54.05011387 231.54241555 -56.22524552 231.5241682 -58.40039062 231.5078125 C-63.70481789 231.4639459 -69.00857568 231.39718689 -74.3125 231.3125 C-74.45075195 232.61537964 -74.45075195 232.61537964 -74.59179688 233.94458008 C-76.06221234 246.7429129 -78.4295199 259.34480216 -80.8125 272 C-81.61728574 276.2950717 -82.41903321 280.5907005 -83.21875 284.88671875 C-83.40808105 285.90047577 -83.59741211 286.91423279 -83.79248047 287.95870972 C-84.9741089 294.33335002 -86.04661657 300.70543764 -86.93554688 307.12817383 C-87.3125 309.3125 -87.3125 309.3125 -88.3125 311.3125 C-119.3325 311.3125 -150.3525 311.3125 -182.3125 311.3125 C-181.70116923 303.36519999 -181.08285816 295.96735845 -179.5703125 288.234375 C-179.31675491 286.89079926 -179.31675491 286.89079926 -179.05807495 285.52008057 C-178.52445764 282.69958888 -177.98137559 279.88102956 -177.4375 277.0625 C-176.90477001 274.26773143 -176.37404544 271.47258802 -175.84368896 268.67736816 C-175.49651885 266.84957319 -175.14810206 265.02201455 -174.79840088 263.19470215 C-173.45002659 256.12750511 -172.20866677 249.04573418 -171.01904297 241.95019531 C-170.31497996 238.32526828 -169.34716604 234.8550279 -168.3125 231.3125 C-169.13123093 231.31916183 -169.94996185 231.32582367 -170.79350281 231.33268738 C-216.58980481 231.68651303 -262.21258564 231.04340923 -307.96442413 229.00945282 C-325.12163809 228.2470436 -342.28356325 227.69542031 -359.45001984 227.18920135 C-361.61478513 227.12530152 -363.77953232 227.06081907 -365.9442749 226.99615479 C-373.73355149 226.76366107 -381.5229376 226.53521919 -389.3125 226.3125 C-389.3125 225.9825 -389.3125 225.6525 -389.3125 225.3125 C-384.57771402 224.5786695 -379.91995027 224.11343952 -375.13525391 223.87939453 C-374.4512297 223.84499645 -373.76720549 223.81059837 -373.06245327 223.77515793 C-370.80479111 223.66227872 -368.54693639 223.55386646 -366.2890625 223.4453125 C-364.68271679 223.36551231 -363.07638878 223.28535515 -361.47007751 223.2048645 C-358.06054217 223.03443966 -354.65093028 222.8656903 -351.24124146 222.69836426 C-342.37005706 222.26272534 -333.49939556 221.81673851 -324.62890625 221.3671875 C-323.74997396 221.32270477 -322.87104168 221.27822205 -321.96547508 221.23239136 C-304.66727911 220.35432337 -287.38005214 219.33390038 -270.09814453 218.17626953 C-260.14748333 217.52163834 -250.28670123 217.14117104 -240.3125 217.3125 C-241.3025 212.8575 -241.3025 212.8575 -242.3125 208.3125 C-248.14733041 207.47540509 -253.9822951 206.63925451 -259.81738281 205.80395508 C-261.79984132 205.52003108 -263.78226376 205.2358551 -265.76464844 204.95141602 C-268.62425296 204.54115617 -271.48398864 204.13182129 -274.34375 203.72265625 C-275.22115845 203.59657486 -276.09856689 203.47049347 -277.00256348 203.34059143 C-282.10033153 202.61227339 -287.20081786 201.93593897 -292.3125 201.3125 C-288.44784507 198.73606338 -284.94892158 198.75608959 -280.4453125 198.4609375 C-279.57357391 198.39717926 -278.70183533 198.33342102 -277.80368042 198.26773071 C-275.01547295 198.0660635 -272.22656703 197.87686626 -269.4375 197.6875 C-267.56635075 197.55285235 -265.69525604 197.41744449 -263.82421875 197.28125 C-249.03052221 196.22293997 -249.03052221 196.22293997 -244.3125 196.3125 C-244.5290625 195.61382812 -244.745625 194.91515625 -244.96875 194.1953125 C-245.2471875 193.28523437 -245.525625 192.37515625 -245.8125 191.4375 C-246.0909375 190.53257812 -246.369375 189.62765625 -246.65625 188.6953125 C-247.3125 186.3125 -247.3125 186.3125 -247.3125 184.3125 C-248.15167969 184.27511719 -248.99085938 184.23773438 -249.85546875 184.19921875 C-264.06291282 183.42260605 -278.07737317 181.26316938 -292.08984375 178.84375 C-296.53105234 178.11162349 -300.9843732 177.46757465 -305.4375 176.8125 C-312.10847648 175.82781058 -318.71931375 174.74102369 -325.3125 173.3125 C-325.3125 172.9825 -325.3125 172.6525 -325.3125 172.3125 C-316.26273458 171.28460728 -307.21275177 170.2586553 -298.16249466 169.23510075 C-293.95897204 168.75963602 -289.75552394 168.2835324 -285.55224609 167.8059082 C-281.48698911 167.34399233 -277.42153656 166.88383368 -273.3559494 166.4248333 C-271.81395296 166.25044249 -270.27202495 166.07544536 -268.7301712 165.89979744 C-263.9260777 165.35275936 -259.12042917 164.82479563 -254.3125 164.3125 C-253.32433289 164.20252182 -252.33616577 164.09254364 -251.3180542 163.97923279 C-241.60267609 163.01666371 -231.86077837 163.18694791 -222.109375 163.21484375 C-220.17596473 163.21671245 -218.24255398 163.21813422 -216.30914307 163.21913147 C-211.2589585 163.22292106 -206.20880341 163.23272032 -201.15863037 163.24383545 C-195.98987222 163.25412671 -190.82110923 163.25864551 -185.65234375 163.26367188 C-175.53904966 163.27434632 -165.4257773 163.29137919 -155.3125 163.3125 C-155.2212812 162.01184097 -155.2212812 162.01184097 -155.1282196 160.68490601 C-155.0442543 159.53382355 -154.960289 158.38274109 -154.8737793 157.19677734 C-154.79234177 156.06154633 -154.71090424 154.92631531 -154.6269989 153.75668335 C-154.13907296 148.41324206 -153.1702228 143.19616276 -152.125 137.9375 C-151.90577881 136.82334717 -151.68655762 135.70919434 -151.46069336 134.5612793 C-142.61296188 90.67068863 -124.62829035 50.31609575 -86.25390625 24.578125 C-60.20845644 7.59879756 -30.91028798 0.32390695 0 0 Z " fill="#147DD0" transform="translate(428.3125,200.6875)"/>
<path d="M0 0 C168.96 0 337.92 0 512 0 C512 26.4 512 52.8 512 80 C343.04 80 174.08 80 0 80 C0 53.6 0 27.2 0 0 Z " fill="#F7C229" transform="translate(0,0)"/>
<path d="M0 0 C4.01677258 0.70469694 5.70650854 1.76900854 8.5625 4.625 C9.85664246 7.21328491 9.68892042 9.54095467 9.75073242 12.38842773 C10.33883623 34.8735191 19.96149969 52.73690268 35.9921875 68.2890625 C49.40585505 80.47959927 66.94405458 88.73751296 84.5625 92.625 C85.36333008 92.80901367 86.16416016 92.99302734 86.98925781 93.18261719 C94.77208849 94.80224862 102.38317516 94.93243354 110.3125 94.875 C110.97480621 94.87223053 111.63711243 94.86946106 112.31948853 94.86660767 C141.01422222 94.72569003 169.05668128 87.68489538 190.15625 67.09375 C205.41786938 51.09663089 211.63102856 31.54083714 212.04589844 9.7800293 C212.2359754 4.0264984 212.2359754 4.0264984 213.95751953 1.90966797 C216.61023423 -0.21363364 219.12694839 0.15910808 222.40234375 0.265625 C224.5625 0.625 224.5625 0.625 227.0625 2.4375 C232.14007365 9.8422949 229.8832123 21.32499456 228.3125 29.75 C225.01949612 46.11558588 218.5199435 60.94254877 207.5625 73.625 C206.97082031 74.35976562 206.37914062 75.09453125 205.76953125 75.8515625 C190.95723277 93.62632068 166.24467859 105.80053935 143.5625 109.625 C142.77246582 109.75890137 141.98243164 109.89280273 141.16845703 110.03076172 C103.2710877 116.27788972 66.3602304 111.27489087 34.5625 88.625 C23.42818825 80.49695242 14.23234843 71.07996843 6.5625 59.625 C5.76199219 58.47644531 5.76199219 58.47644531 4.9453125 57.3046875 C-0.03134698 49.69787638 -2.7197795 41.23262224 -5.4375 32.625 C-5.70820313 31.80128906 -5.97890625 30.97757813 -6.2578125 30.12890625 C-7.63254419 25.16244598 -7.6963456 20.06132038 -7.8125 14.9375 C-7.83876465 14.21175781 -7.8650293 13.48601562 -7.89208984 12.73828125 C-7.91004752 6.72660369 -6.63269646 1.20594481 0 0 Z " fill="#F3F3F1" transform="translate(143.4375,101.375)"/>
<path d="M0 0 C168.96 0 337.92 0 512 0 C512 1.98 512 3.96 512 6 C343.04 6 174.08 6 0 6 C0 4.02 0 2.04 0 0 Z " fill="#F8F2B9" transform="translate(0,80)"/>
<path d="M0 0 C1.62844849 -0.02670776 1.62844849 -0.02670776 3.28979492 -0.05395508 C12.75067152 -0.04456714 21.40813596 1.61340149 29.6875 6.3125 C26.83513557 7.132177 24.37010878 7.41661919 21.4074707 7.34667969 C20.56667465 7.33068726 19.7258786 7.31469482 18.85960388 7.29821777 C17.95331741 7.27714966 17.04703094 7.25608154 16.11328125 7.234375 C14.15741835 7.2028943 12.20152361 7.17334566 10.24560547 7.14550781 C9.22448669 7.13088501 8.20336792 7.11626221 7.15130615 7.10119629 C-27.72255484 6.67296465 -60.34751803 12.04350161 -88.3125 34.3125 C-88.91223633 34.7873584 -89.51197266 35.2622168 -90.12988281 35.75146484 C-98.19928662 42.21424224 -105.16428981 48.94120816 -111.3125 57.3125 C-112.04855469 58.29605469 -112.78460938 59.27960938 -113.54296875 60.29296875 C-135.54714702 90.78068563 -141.85479168 126.35053074 -147.88598633 162.72290039 C-148.02376747 163.55179024 -148.16154861 164.38068008 -148.30350494 165.23468781 C-148.6402005 167.26056476 -148.9764011 169.28652397 -149.3125 171.3125 C-165.6562107 171.33599428 -181.99991581 171.35355956 -198.34363937 171.36431217 C-205.93450235 171.36944035 -213.52535475 171.37641565 -221.11621094 171.38793945 C-227.74231132 171.39799374 -234.36840404 171.40437863 -240.99451184 171.40658849 C-244.49395781 171.40787761 -247.99338188 171.41084657 -251.49282074 171.41823006 C-266.79888168 171.44931423 -282.03513083 171.30272065 -297.3125 170.3125 C-297.3125 169.9825 -297.3125 169.6525 -297.3125 169.3125 C-291.40866696 168.61614849 -285.50452553 167.92249094 -279.60009766 167.23120117 C-277.59643247 166.99624317 -275.59284966 166.76058158 -273.58935547 166.52416992 C-270.68999888 166.18217599 -267.79034386 165.84281319 -264.890625 165.50390625 C-263.57266937 165.34759483 -263.57266937 165.34759483 -262.22808838 165.18812561 C-259.59096261 164.88139151 -256.95252202 164.59316383 -254.3125 164.3125 C-253.44840515 164.21581528 -252.5843103 164.11913055 -251.69403076 164.01951599 C-241.84683151 163.0440818 -231.99284542 163.18657011 -222.109375 163.21484375 C-220.17596473 163.21671245 -218.24255398 163.21813422 -216.30914307 163.21913147 C-211.2589585 163.22292106 -206.20880341 163.23272032 -201.15863037 163.24383545 C-195.98987222 163.25412671 -190.82110923 163.25864551 -185.65234375 163.26367188 C-175.53904966 163.27434632 -165.4257773 163.29137919 -155.3125 163.3125 C-155.2212812 162.01184097 -155.2212812 162.01184097 -155.1282196 160.68490601 C-155.0442543 159.53382355 -154.960289 158.38274109 -154.8737793 157.19677734 C-154.79234177 156.06154633 -154.71090424 154.92631531 -154.6269989 153.75668335 C-154.13907296 148.41324206 -153.1702228 143.19616276 -152.125 137.9375 C-151.90577881 136.82334717 -151.68655762 135.70919434 -151.46069336 134.5612793 C-142.61296188 90.67068863 -124.62829035 50.31609575 -86.25390625 24.578125 C-60.20845644 7.59879756 -30.91028798 0.32390695 0 0 Z " fill="#166DAF" transform="translate(428.3125,200.6875)"/>
<path d="M0 0 C168.96 0 337.92 0 512 0 C512 1.32 512 2.64 512 4 C511.36085635 4.00173625 510.72171271 4.0034725 510.06320107 4.00526136 C459.71922594 4.14210887 409.37526428 4.28355679 359.03131354 4.4290989 C356.13374847 4.43747471 353.23618337 4.44584234 350.33861828 4.4542098 C210.61572757 4.85409991 210.61572757 4.85409991 68.125 5.5625 C66.74255836 5.57082422 66.74255836 5.57082422 65.33218861 5.57931662 C43.55473224 5.71061021 21.7773279 5.84878995 0 6 C0 4.02 0 2.04 0 0 Z " fill="#FAE534" transform="translate(0,0)"/>
<path d="M0 0 C168.96 0 337.92 0 512 0 C512 0.99 512 1.98 512 3 C343.04 3 174.08 3 0 3 C0 2.01 0 1.02 0 0 Z " fill="#F7E352" transform="translate(0,77)"/>
<path d="M0 0 C3.97851375 2.09040553 6.47198589 4.0837429 8.09375 8.28125 C8.81685712 14.68591307 7.87608196 18.0677654 4.09375 23.28125 C0.53391185 26.43424951 -2.99516559 26.92008003 -7.62109375 26.765625 C-11.7358982 25.89342713 -14.2511567 23.4252415 -16.90625 20.28125 C-19.35826202 16.50106481 -19.18111367 12.8515956 -18.5859375 8.50390625 C-17.44974021 4.78841053 -15.04847683 2.4698657 -11.90625 0.28125 C-7.83022803 -1.07742399 -4.11874159 -1.55296814 0 0 Z " fill="#AB832D" transform="translate(152.90625,26.71875)"/>
<path d="M0 0 C4.15902434 3.57869536 5.53662108 5.72827131 6.0625 11.25 C5.882849 15.22477842 4.95924776 17.98060329 2.6875 21.3125 C-1.3345939 24.95153734 -4.75192229 26.06432224 -10.05859375 25.83984375 C-14.03402839 24.90971606 -16.76715017 22.42600827 -19.3125 19.3125 C-20.76478719 14.95563842 -20.94919736 10.86134895 -20.3125 6.3125 C-18.68864084 3.1232406 -16.34583465 1.09640904 -13.5 -1.0625 C-8.37965237 -2.52545646 -4.65895078 -2.37342776 0 0 Z " fill="#AA822C" transform="translate(369.3125,27.6875)"/>
<path d="M0 0 C1.98 0 3.96 0 6 0 C5.46645758 7.82785706 4.25676687 15.33189999 2.625 23 C1.03990661 30.66696606 -0.45304839 38.32100549 -1.625 46.0625 C-3.34995109 57.45514406 -5.39353864 68.77216644 -8 80 C-9.98 80 -11.96 80 -14 80 C-13.54214066 68.36657975 -11.32544701 57.15338891 -9.125 45.75 C-8.59227001 42.95523143 -8.06154544 40.16008802 -7.53118896 37.36486816 C-7.18401885 35.53707319 -6.83560206 33.70951455 -6.48590088 31.88220215 C-5.13752659 24.81500511 -3.89616677 17.73323418 -2.70654297 10.63769531 C-1.99888662 6.99426769 -1.07255507 3.54922389 0 0 Z " fill="#196EAD" transform="translate(260,432)"/>
<path d="M0 0 C0.495 1.485 0.495 1.485 1 3 C-0.29296875 4.90234375 -0.29296875 4.90234375 -2.1875 6.9375 C-2.83589844 7.63746094 -3.48429687 8.33742187 -4.15234375 9.05859375 C-4.76207031 9.69925781 -5.37179687 10.33992187 -6 11 C-6.7425 11.825 -7.485 12.65 -8.25 13.5 C-10 15 -10 15 -13 15 C-13.24387451 15.59546631 -13.48774902 16.19093262 -13.73901367 16.80444336 C-15.23286478 19.40545071 -16.69196426 20.46603657 -19.17578125 22.12890625 C-20.00400391 22.68900391 -20.83222656 23.24910156 -21.68554688 23.82617188 C-22.55244141 24.39916016 -23.41933594 24.97214844 -24.3125 25.5625 C-25.16779297 26.13935547 -26.02308594 26.71621094 -26.90429688 27.31054688 C-49.91944781 42.76688759 -79.70538776 47.69026856 -106.9921875 42.703125 C-120.78 39.48 -120.78 39.48 -126 36 C-126 35.34 -126 34.68 -126 34 C-120.07018576 34.4533862 -114.71459663 35.27483875 -109 37 C-104.12286675 37.83479811 -99.43673571 38.12842848 -94.4921875 38.1328125 C-93.45942184 38.13424759 -93.45942184 38.13424759 -92.40579224 38.13571167 C-90.96209623 38.13638732 -89.51839707 38.13457633 -88.07470703 38.13037109 C-85.8739539 38.12499745 -83.67340328 38.13034546 -81.47265625 38.13671875 C-80.06249955 38.13605818 -78.65234298 38.13477746 -77.2421875 38.1328125 C-75.33735596 38.13112061 -75.33735596 38.13112061 -73.39404297 38.12939453 C-70.44808907 38.01708295 -67.86258957 37.65091904 -65 37 C-63.23010503 36.88094877 -61.45912328 36.7772349 -59.6875 36.6875 C-54.29168864 36.23120991 -50.63850231 34.64772879 -46 32 C-42.93594476 30.63819767 -39.87765859 29.31969694 -36.7265625 28.171875 C-22.67516737 22.94138722 -8.49341447 12.58399276 0 0 Z " fill="#E5D641" transform="translate(342,196)"/>
<path d="M0 0 C0.99 0.495 0.99 0.495 2 1 C-0.2207461 3.27919862 -2.45302104 5.54676959 -4.6875 7.8125 C-5.62625977 8.77639648 -5.62625977 8.77639648 -6.58398438 9.75976562 C-9.86868991 13.07886598 -12.8728518 15.74698303 -17 18 C-19.75356697 19.98801924 -22.46804957 22.02294477 -25.18359375 24.0625 C-29.28141487 26.88152812 -33.20413289 28.80103322 -38 30 C-38.99 30.495 -39.98 30.99 -41 31.5 C-43.51501425 32.75750713 -45.31838157 33.38191372 -48 34 C-48.84433594 34.22558594 -49.68867188 34.45117188 -50.55859375 34.68359375 C-72.46399802 40.42001576 -90.29033075 39.69473674 -112 34 C-112 33.34 -112 32.68 -112 32 C-113.65 32 -115.3 32 -117 32 C-117.33 31.34 -117.66 30.68 -118 30 C-118.99 29.67 -119.98 29.34 -121 29 C-121 28.34 -121 27.68 -121 27 C-116.05 27.99 -116.05 27.99 -111 29 C-111 29.66 -111 30.32 -111 31 C-109.948125 30.95875 -108.89625 30.9175 -107.8125 30.875 C-104.15693015 30.86226282 -100.78132276 31.34741326 -97.1875 32 C-68.70675824 36.56611661 -39.2875954 29.90485167 -15.875 13.125 C-14.92625 12.42375 -13.9775 11.7225 -13 11 C-12.278125 10.67 -11.55625 10.34 -10.8125 10 C-8.19325068 8.55489693 -6.83715889 6.33820222 -5 4 C-3.36643049 2.62631655 -1.7074998 1.28062485 0 0 Z " fill="#E3D441" transform="translate(336,188)"/>
<path d="M0 0 C0.88149216 -0.00960754 1.76298431 -0.01921509 2.67118835 -0.02911377 C4.11169304 -0.03548859 4.11169304 -0.03548859 5.58129883 -0.04199219 C6.56447586 -0.04769226 7.54765289 -0.05339233 8.56062317 -0.05926514 C10.64798908 -0.06873385 12.73537006 -0.07525651 14.82275391 -0.07910156 C18.00751182 -0.08877359 21.19161537 -0.11976555 24.3762207 -0.15136719 C26.40290957 -0.15790034 28.42960307 -0.16314958 30.45629883 -0.16699219 C31.88162178 -0.18551239 31.88162178 -0.18551239 33.33573914 -0.20440674 C38.59967851 -0.18680011 42.31633296 0.1785989 46.85083008 3.16113281 C50.85083008 7.58218544 50.85083008 7.58218544 50.85083008 9.16113281 C32.04083008 9.16113281 13.23083008 9.16113281 -6.14916992 9.16113281 C-5.00951621 0.04390308 -5.00951621 0.04390308 0 0 Z " fill="#136CB1" transform="translate(371.149169921875,363.8388671875)"/>
<path d="M0 0 C1.3931543 0.32158081 1.3931543 0.32158081 2.81445312 0.6496582 C13.79453788 3.02950133 24.29996569 3.36246615 35.5 3.1875 C37.20962341 3.17240076 38.91925996 3.15872177 40.62890625 3.14648438 C44.75293875 3.1139512 48.87631686 3.06247034 53 3 C53.495 10.425 53.495 10.425 54 18 C51.07667731 13.61501596 51.8643498 10.2225328 52 5 C47.71 5 43.42 5 39 5 C39 7.97 39 10.94 39 14 C38.67 14 38.34 14 38 14 C38 11.03 38 8.06 38 5 C34.04 5 30.08 5 26 5 C26 8.96 26 12.92 26 17 C25.67 17 25.34 17 25 17 C24.01751476 12.9472484 23.91840426 9.16138263 24 5 C22.52093108 4.97310784 21.04172517 4.95365379 19.5625 4.9375 C18.73878906 4.92589844 17.91507813 4.91429687 17.06640625 4.90234375 C15.00836062 4.76732652 15.00836062 4.76732652 14 6 C13.92741054 8.18639453 13.91626217 10.37500389 13.9375 12.5625 C13.94652344 13.76003906 13.95554688 14.95757812 13.96484375 16.19140625 C13.97644531 17.11824219 13.98804688 18.04507813 14 19 C15.32 19.33 16.64 19.66 18 20 C9.6875679 19.57258771 2.0098625 18.25809954 -6 16 C-5.01 15.67 -4.02 15.34 -3 15 C-1.96157669 11.7806416 -1.96157669 11.7806416 -1.3125 8 C-1.06113281 6.72125 -0.80976563 5.4425 -0.55078125 4.125 C-0.154999 2.07302837 -0.154999 2.07302837 0 0 Z " fill="#EFEEE9" transform="translate(223,193)"/>
<path d="M0 0 C4.01677258 0.70469694 5.70650854 1.76900854 8.5625 4.625 C10.69329691 8.88659382 9.60752317 15.03263702 9.5625 19.625 C4.2825 19.955 -0.9975 20.285 -6.4375 20.625 C-6.7675 21.615 -7.0975 22.605 -7.4375 23.625 C-7.54611833 20.91557607 -7.62508577 18.210561 -7.6875 15.5 C-7.72101563 14.73945312 -7.75453125 13.97890625 -7.7890625 13.1953125 C-7.89536602 7.0297084 -6.91783354 1.25778792 0 0 Z " fill="#F0F0F1" transform="translate(143.4375,101.375)"/>
<path d="M0 0 C3.03215675 2.19831364 3.81654398 3.44963194 5 7 C5.06970052 9.39490986 5.08448003 11.79167691 5.0625 14.1875 C5.05347656 15.45980469 5.04445313 16.73210937 5.03515625 18.04296875 C5.02355469 19.01878906 5.01195312 19.99460937 5 21 C4.67 19.68 4.34 18.36 4 17 C-1.28 17 -6.56 17 -12 17 C-12.36948775 3.5752784 -12.36948775 3.5752784 -10.765625 1.078125 C-7.40949051 -0.97119606 -3.77975342 -0.62881974 0 0 Z " fill="#EEEDEA" transform="translate(368,102)"/>
<path d="M0 0 C-3.83554166 3.48685606 -7.02922751 4.69190198 -12 6 C-14.00781177 6.98422146 -16.00892752 7.98234073 -18 9 C-19.32607118 9.36114279 -20.66090892 9.69060711 -22 10 C-22.84433594 10.22558594 -23.68867188 10.45117188 -24.55859375 10.68359375 C-46.46399802 16.42001576 -64.29033075 15.69473674 -86 10 C-86 9.34 -86 8.68 -86 8 C-85.04867187 8.21112427 -85.04867187 8.21112427 -84.078125 8.42651367 C-74.9304851 10.218295 -65.94723064 10.33877906 -56.6640625 10.31567383 C-54.00479392 10.31250571 -51.34663259 10.33608009 -48.6875 10.36132812 C-39.30174684 10.39511701 -31.04293688 9.75671644 -22 7 C-19.66493533 6.56789734 -17.36043768 6.26823156 -15 6 C-15 5.34 -15 4.68 -15 4 C-12.87875034 3.13656176 -10.75286928 2.28449352 -8.625 1.4375 C-7.44164062 0.96183594 -6.25828125 0.48617187 -5.0390625 -0.00390625 C-2 -1 -2 -1 0 0 Z " fill="#D5C63C" transform="translate(310,212)"/>
<path d="M0 0 C1.76923828 0.01353516 1.76923828 0.01353516 3.57421875 0.02734375 C4.47785156 0.03894531 5.38148438 0.05054687 6.3125 0.0625 C6.3125 3.3625 6.3125 6.6625 6.3125 10.0625 C4.73050369 10.71160154 3.14684276 11.35664694 1.5625 12 C0.68078125 12.35964844 -0.2009375 12.71929687 -1.109375 13.08984375 C-3.29936104 13.91606576 -5.40648271 14.55619943 -7.6875 15.0625 C-9.65844808 10.13512981 -9.8674928 6.28229128 -9.6875 1.0625 C-6.26517028 -0.07827657 -3.60076783 -0.03565117 0 0 Z " fill="#F3F3F2" transform="translate(146.6875,120.9375)"/>
<path d="M0 0 C5.92981424 0.4533862 11.28540337 1.27483875 17 3 C21.87713325 3.83479811 26.56326429 4.12842848 31.5078125 4.1328125 C32.54057816 4.13424759 32.54057816 4.13424759 33.59420776 4.13571167 C35.03790377 4.13638732 36.48160293 4.13457633 37.92529297 4.13037109 C40.1260461 4.12499745 42.32659672 4.13034546 44.52734375 4.13671875 C45.93750045 4.13605818 47.34765702 4.13477746 48.7578125 4.1328125 C50.66264404 4.13112061 50.66264404 4.13112061 52.60595703 4.12939453 C55.55302628 4.01704043 58.13809588 3.66097334 61 3 C62.76841153 2.79088856 64.53947363 2.60298246 66.3125 2.4375 C67.19550781 2.35371094 68.07851563 2.26992187 68.98828125 2.18359375 C69.98408203 2.09271484 69.98408203 2.09271484 71 2 C71 2.66 71 3.32 71 4 C49.68056087 9.33581493 29.23096381 9.91788818 8 4 C5.33645628 3.32021458 2.66843912 2.66041637 0 2 C0 1.34 0 0.68 0 0 Z " fill="#CDBE3A" transform="translate(216,230)"/>
<path d="M0 0 C0.495 1.485 0.495 1.485 1 3 C-0.29296875 4.90234375 -0.29296875 4.90234375 -2.1875 6.9375 C-2.83589844 7.63746094 -3.48429687 8.33742187 -4.15234375 9.05859375 C-4.76207031 9.69925781 -5.37179687 10.33992187 -6 11 C-7.11375 12.2375 -7.11375 12.2375 -8.25 13.5 C-10 15 -10 15 -13 15 C-13.26232422 15.60215332 -13.52464844 16.20430664 -13.79492188 16.82470703 C-19.56727554 27.2444135 -35.51138198 33.00439052 -46.26953125 36.20703125 C-49.72738727 36.94205195 -50.82419565 36.98780373 -54 36 C-48.34388764 33.1223288 -42.69966611 30.3476447 -36.7265625 28.171875 C-22.67516737 22.94138722 -8.49341447 12.58399276 0 0 Z " fill="#DACB3D" transform="translate(342,196)"/>
<path d="M0 0 C4.01677258 0.70469694 5.70650854 1.76900854 8.5625 4.625 C10.69329691 8.88659382 9.60752317 15.03263702 9.5625 19.625 C4.2825 19.955 -0.9975 20.285 -6.4375 20.625 C-6.7675 21.615 -7.0975 22.605 -7.4375 23.625 C-7.54611833 20.91557607 -7.62508577 18.210561 -7.6875 15.5 C-7.72101563 14.73945312 -7.75453125 13.97890625 -7.7890625 13.1953125 C-7.89536602 7.0297084 -6.91783354 1.25778792 0 0 Z M-6.4375 6.625 C-6.4375 10.915 -6.4375 15.205 -6.4375 19.625 C-1.4875 18.965 3.4625 18.305 8.5625 17.625 C8.5625 14.325 8.5625 11.025 8.5625 7.625 C3.66181037 5.99143679 -1.29488476 6.56970306 -6.4375 6.625 Z " fill="#E3DFCD" transform="translate(143.4375,101.375)"/>
<path d="M0 0 C0.6875 1.625 0.6875 1.625 1 4 C0.03685937 6.01800895 -0.96958573 8.01549844 -2 10 C-2.45319851 11.90990802 -2.90513038 13.82017495 -3.33984375 15.734375 C-4.41651506 19.42945999 -6.13843264 22.81092371 -7.79296875 26.27734375 C-8.86370913 28.69257367 -9.58056061 30.95430873 -10.25 33.5 C-12.15731175 39.62114005 -16.56086626 44.49653099 -21 49 C-22.485 49.495 -22.485 49.495 -24 50 C-22.33643288 46.45958792 -20.28400607 43.23659081 -18.1875 39.9375 C-14.57604558 34.1790721 -11.61828037 28.2813553 -9 22 C-9.66 22.33 -10.32 22.66 -11 23 C-9.36398217 18.56305113 -7.19721972 14.5144508 -4.9375 10.375 C-2.15558526 5.33187494 -2.15558526 5.33187494 0 0 Z " fill="#DED044" transform="translate(367,146)"/>
<path d="M0 0 C11.88 0 23.76 0 36 0 C31.58565998 4.41434002 22.46100585 3.12328771 16.4375 3.1875 C15.37583618 3.20707764 15.37583618 3.20707764 14.29272461 3.22705078 C9.22530267 3.23526283 4.87513786 2.38741269 0 1 C0 0.67 0 0.34 0 0 Z " fill="#C9BB39" transform="translate(238,224)"/>
<path d="M0 0 C5.9454292 0.4545801 11.25879593 1.34575476 17 3 C21.32201229 3.74745389 25.65718081 4.38612781 30 5 C30 5.33 30 5.66 30 6 C36.93 6.33 43.86 6.66 51 7 C51 7.33 51 7.66 51 8 C36.02491999 8.4730888 22.45566678 8.02935168 8 4 C5.33645628 3.32021458 2.66843912 2.66041637 0 2 C0 1.34 0 0.68 0 0 Z " fill="#D3C43C" transform="translate(216,230)"/>
<path d="M0 0 C3.51449145 0.01678897 4.38059167 0.07296179 7.25 2.3125 C7.724375 2.9725 8.19875 3.6325 8.6875 4.3125 C8.3575 4.9725 8.0275 5.6325 7.6875 6.3125 C2.7375 5.9825 -2.2125 5.6525 -7.3125 5.3125 C-4.72979011 0.14708022 -4.72979011 0.14708022 0 0 Z " fill="#E4E4E1" transform="translate(363.3125,101.6875)"/>
<path d="M0 0 C4.34624346 -0.72437391 6.27489523 -0.49368836 9.9375 2 C10.618125 2.66 11.29875 3.32 12 4 C11.67 4.66 11.34 5.32 11 6 C4.07 5.505 4.07 5.505 -3 5 C-2.01 3.35 -1.02 1.7 0 0 Z " fill="#E9E9E5" transform="translate(140,102)"/>
<path d="M0 0 C1.7882302 2.68234531 2.85190382 4.95514077 4 7.9375 C4.95820995 10.41911406 5.89215911 12.79862364 7.1484375 15.14453125 C8.32108059 17.6996022 7.73479215 19.35474827 7 22 C4.04590285 18.6142153 3.00154687 15.30061398 1.8125 11 C1.46832031 9.783125 1.12414062 8.56625 0.76953125 7.3125 C0 4 0 4 0 0 Z " fill="#E5D74D" transform="translate(140,140)"/>
<path d="M0 0 C0.56847656 0.26554688 1.13695312 0.53109375 1.72265625 0.8046875 C6.43192114 2.95884206 10.98231131 4.71888799 16 6 C15.67 7.65 15.34 9.3 15 11 C14.67 9.68 14.34 8.36 14 7 C5.90378403 4.82995505 5.90378403 4.82995505 -2 7 C-1.34 4.69 -0.68 2.38 0 0 Z " fill="#E4E3DA" transform="translate(351,140)"/>
<path d="M0 0 C4.95 0.33 9.9 0.66 15 1 C14.25 8.625 14.25 8.625 12 12 C12 9.36 12 6.72 12 4 C6.06 2.515 6.06 2.515 0 1 C0 0.67 0 0.34 0 0 Z " fill="#E5E4E1" transform="translate(356,130)"/>
<path d="M0 0 C0.99 0.33 1.98 0.66 3 1 C2.66226563 1.50789062 2.32453125 2.01578125 1.9765625 2.5390625 C-0.65410814 6.59911488 -2.70414665 10.287806 -4 15 C-2.68 15 -1.36 15 0 15 C0 15.66 0 16.32 0 17 C-3.37462715 16.45276317 -5.08235 15.9451 -8 14 C-7.01 14 -6.02 14 -5 14 C-4.9175 13.175 -4.835 12.35 -4.75 11.5 C-3.83552731 7.23246079 -2.07776822 3.80763106 0 0 Z " fill="#E2E1D7" transform="translate(213,190)"/>
<path d="M0 0 C1.4606285 2.64738916 2 3.89448334 2 7 C0.80375 7.268125 -0.3925 7.53625 -1.625 7.8125 C-5.38477534 8.7391113 -8.56454015 10.20047341 -12 12 C-12.66 12 -13.32 12 -14 12 C-14 11.34 -14 10.68 -14 10 C-12.23244474 9.15973604 -10.46082737 8.32801278 -8.6875 7.5 C-7.20830078 6.80390625 -7.20830078 6.80390625 -5.69921875 6.09375 C-3 5 -3 5 0 5 C0 3.35 0 1.7 0 0 Z " fill="#E0E0D5" transform="translate(153,126)"/>
<path d="M0 0 C0.99 0.33 1.98 0.66 3 1 C1.68 6.28 0.36 11.56 -1 17 C-2.65 16.67 -4.3 16.34 -6 16 C-5.01 15.67 -4.02 15.34 -3 15 C-1.96157669 11.7806416 -1.96157669 11.7806416 -1.3125 8 C-1.06113281 6.72125 -0.80976563 5.4425 -0.55078125 4.125 C-0.154999 2.07302837 -0.154999 2.07302837 0 0 Z " fill="#E1E0D6" transform="translate(223,193)"/>
<path d="M0 0 C3.65938172 1.43164111 7.23988068 2.98934296 10.8125 4.625 C12.27623047 5.29402344 12.27623047 5.29402344 13.76953125 5.9765625 C14.50558594 6.31429687 15.24164063 6.65203125 16 7 C15.34 7.66 14.68 8.32 14 9 C9.38 6.69 4.76 4.38 0 2 C0 1.34 0 0.68 0 0 Z " fill="#DADBD8" transform="translate(338,164)"/>
<path d="M0 0 C1.48555383 0.92734572 2.96327506 1.86724813 4.4375 2.8125 C5.26121094 3.33457031 6.08492187 3.85664063 6.93359375 4.39453125 C9 6 9 6 10 9 C10.66 9 11.32 9 12 9 C12 9.66 12 10.32 12 11 C8.81293058 9.56438314 6.37830895 7.79733671 3.75 5.5 C3.04359375 4.8915625 2.3371875 4.283125 1.609375 3.65625 C0 2 0 2 0 0 Z " fill="#E3D440" transform="translate(173,202)"/>
<path d="M0 0 C0.99 0.33 1.98 0.66 3 1 C2.45730469 1.44730469 1.91460937 1.89460937 1.35546875 2.35546875 C-2.48879484 5.60404465 -5.76332678 8.38686148 -8 13 C-8.66 12.34 -9.32 11.68 -10 11 C-6.7 7.37 -3.4 3.74 0 0 Z " fill="#DBDBD8" transform="translate(191,180)"/>
<path d="M0 0 C1.8871875 0.061875 1.8871875 0.061875 3.8125 0.125 C4.1425 1.115 4.4725 2.105 4.8125 3.125 C0.8525 2.795 -3.1075 2.465 -7.1875 2.125 C-4.09861478 0.06574319 -3.47814073 -0.1140374 0 0 Z " fill="#5B9AA1" transform="translate(143.1875,399.875)"/>
<path d="M0 0 C1.62600941 0.0870005 3.25089678 0.1951781 4.875 0.3125 C5.77992188 0.37050781 6.68484375 0.42851562 7.6171875 0.48828125 C10 1 10 1 12 4 C3.42857143 3 3.42857143 3 0 2 C0 1.34 0 0.68 0 0 Z " fill="#D8C93D" transform="translate(216,230)"/>
<path d="M0 0 C1.98 0.66 3.96 1.32 6 2 C6 2.66 6 3.32 6 4 C6.99 4 7.98 4 9 4 C9 4.66 9 5.32 9 6 C7.35 5.67 5.7 5.34 4 5 C4 4.34 4 3.68 4 3 C2.68 2.67 1.36 2.34 0 2 C0 1.34 0 0.68 0 0 Z " fill="#E0D13F" transform="translate(185,213)"/>
<path d="M0 0 C0.33 2.31 0.66 4.62 1 7 C0.34 5.68 -0.32 4.36 -1 3 C-2.65 3 -4.3 3 -6 3 C-2.25 0 -2.25 0 0 0 Z " fill="#E7E6D5" transform="translate(312,185)"/>
</svg>
